<?xml version="1.0" encoding="UTF-8" standalone="no"?>
<svg
   xmlns:dc="http://purl.org/dc/elements/1.1/"
   xmlns:cc="http://creativecommons.org/ns#"
   xmlns:rdf="http://www.w3.org/1999/02/22-rdf-syntax-ns#"
   xmlns:svg="http://www.w3.org/2000/svg"
   xmlns="http://www.w3.org/2000/svg"
   xmlns:sodipodi="http://sodipodi.sourceforge.net/DTD/sodipodi-0.dtd"
   xmlns:inkscape="http://www.inkscape.org/namespaces/inkscape"
   enable-background="new 0 0 210 630"
   viewBox="0 0 210 630"
   version="1.1"
   id="svg1337"
   sodipodi:docname="bt-bonus.svg"
   inkscape:version="1.0.2 (e86c870, 2021-01-15)">
  <metadata
     id="metadata1343">
    <rdf:RDF>
      <cc:Work
         rdf:about="">
        <dc:format>image/svg+xml</dc:format>
        <dc:type
           rdf:resource="http://purl.org/dc/dcmitype/StillImage" />
        <dc:title></dc:title>
      </cc:Work>
    </rdf:RDF>
  </metadata>
  <defs
     id="defs1341" />
  <sodipodi:namedview
     pagecolor="#ffffff"
     bordercolor="#666666"
     borderopacity="1"
     objecttolerance="10"
     gridtolerance="10"
     guidetolerance="10"
     inkscape:pageopacity="0"
     inkscape:pageshadow="2"
     inkscape:window-width="1920"
     inkscape:window-height="1017"
     id="namedview1339"
     showgrid="false"
     inkscape:zoom="0.97423601"
     inkscape:cx="-52.499089"
     inkscape:cy="217.97251"
     inkscape:window-x="-8"
     inkscape:window-y="-8"
     inkscape:window-maximized="1"
     inkscape:current-layer="svg1337" />
  <g
     fill="#fff"
     id="g1335"
     style="fill:#ffffff">
    <circle
       cx="19.8"
       cy="460.7"
       r="2.2"
       id="circle1217"
       style="fill:#ffffff" />
    <circle
       cx="26"
       cy="433.9"
       r="2.2"
       id="circle1219"
       style="fill:#ffffff" />
    <path
       d="m51.6 455.8c-.6-.6-1.2-1.1-1.9-1.5l-24.1-15.3 6.5 12.3-17.9-12 19.5 30.7c.5.7 1 1.4 1.6 2.1 4.5 4.5 11.7 4.5 16.2 0 4.6-4.5 4.6-11.8.1-16.3zm-3.1 13.1c-2.8 2.8-7.2 2.8-10 0s-2.8-7.2 0-10 7.2-2.8 10 0c2.7 2.8 2.7 7.3 0 10z"
       id="path1221"
       style="fill:#ffffff" />
    <path
       d="m48.5 245.8c-1.8-1.8-1.4-4.2-1-5.4.1-.3-.2-.6-.5-.5-1.2.3-3.6.7-4.9-1-1.6-2.2-.6-4.2.2-5.2.2-.3 0-.6-.3-.7-1-.2-2.9-.7-3.9-1.9-1.3-1.7-.8-3.5-.3-4.8-2-.3-4.1-.3-6.2.1-8.3 1.5-14.8 8.6-15.5 17-.9 11.2 7.9 20.6 18.9 20.6 10 0 18.2-7.7 18.9-17.5-1.3.3-3.9.7-5.4-.7zm-13.5 5.7c-3.6 0-6.5-2.9-6.5-6.5s2.9-6.5 6.5-6.5 6.5 2.9 6.5 6.5-2.9 6.5-6.5 6.5z"
       id="path1223"
       style="fill:#ffffff" />
    <path
       d="m45.9 220.2c-1.2-.3-2-.3-2.3.2-.1.3-.2 4.3-.2 4.6s1.1 1 1.4 1.1.6.1.8-.1c.1-.3 1.9-4 2.1-4.4.1-.3-.8-1.2-1.8-1.4z"
       id="path1225"
       style="fill:#ffffff" />
    <path
       d="m51.2 226.6c-1.6.4-2.8 1.1-3.3 2.7-.4 1.3-.2 3.9 1.1 4.3.9.3 3-.2 3.3-.8.2-.5 1-6.7-1.1-6.2z"
       id="path1227"
       style="fill:#ffffff" />
    <path
       d="m193.7 176.9s2-9.4.3-13.6c-1.8-4.2-7.6-8.8-7.6-8.8l-6.2 2.2 2.6 4.7-26.7 4.6c-.4.1-.7.5-.6.9l.4 2.5c.1.4.5.7.9.6l15.9-2.7-10.7 24.3c-.4.9 0 1.9.9 2.3s1.9 0 2.3-.9l9.8-22.3 9.9 22.5c.4.9 1.4 1.3 2.3.9s1.3-1.4.9-2.3l-11.1-25.3 8.5-1.4z"
       id="path1229"
       style="fill:#ffffff" />
    <path
       d="m187.1 311.7c1.9 0 3.9-.1 4.6-.1 2.4 0 2.5-4 .1-4h-25.8l-11.6 21.7h42.3z"
       id="path1231"
       style="fill:#ffffff" />
    <path
       d="m178.5 294.4c-.2-.3-1.4.4-2.2.3-.4 0-1.4-.3-1.8-.4-.5-.1-1.9-.3-2.3.1-.1.1-1.6 3.1-2.3 4.7-2.5 0-7.3 0-8.1 0-2.4 0-2.5 4-.1 4h20.5z"
       id="path1233"
       style="fill:#ffffff" />
    <circle
       cx="35"
       cy="315"
       r="2.2"
       id="circle1235"
       style="fill:#ffffff" />
    <path
       d="m49.4 321.3c-1.9 3.6-6 7-6.1 7.2-.4.4-1 .5-1.5.5-.7 0-1.3-.3-1.8-.8-.8-1-.7-2.4.3-3.2 0 0 3.6-3 5-5.8 1-1.8 3.6-9.9 5.6-16.6-3.7-4.7-9.5-7.8-16-7.8-11.2 0-20.3 9.1-20.3 20.3s9.1 20.3 20.3 20.3 20.3-9.1 20.3-20.3c0-2.4-.4-4.7-1.2-6.9-1.6 5.1-3.6 11.2-4.6 13.1zm-22.2-6.3c0-4.3 3.5-7.8 7.8-7.8s7.8 3.5 7.8 7.8-3.5 7.8-7.8 7.8-7.8-3.5-7.8-7.8z"
       id="path1237"
       style="fill:#ffffff" />
    <path
       d="m128.8 307.6c-.7-1.8-11.7.7-24.5 5.7s-22.6 10.6-21.8 12.4c.4.9 3.2.7 7.4-.2 4.8 6.8 13.7 9.8 21.8 6.6s12.6-11.4 11.5-19.6c3.8-2.2 5.9-4 5.6-4.9z"
       id="path1239"
       style="fill:#ffffff" />
    <path
       d="m102.6 309.1c6.1-2.4 12-4.3 16.7-5.5-4.9-6.2-13.4-8.8-21.1-5.8s-12.2 10.7-11.6 18.6c4.3-2.3 9.9-4.9 16-7.3z"
       id="path1241"
       style="fill:#ffffff" />
    <path
       d="m187 237h-12-12l-3 9.5h15 15z"
       id="path1243"
       style="fill:#ffffff" />
    <path
       d="m193 251h-18-18l-3 10h21 21z"
       id="path1245"
       style="fill:#ffffff" />
    <path
       d="m167 223.5v9h4.7v-4.5h6.5v4.5h4.8v-9z"
       id="path1247"
       style="fill:#ffffff" />
    <path
       d="m31.6 171.6 2.6-11.9c.2-.9 1.4-.9 1.6 0l2.6 11.9 11.8 2.6c.9.2.9 1.4 0 1.6l-11.8 2.6-2.6 11.9c-.2.9-1.4.9-1.6 0l-2.6-11.9-11.8-2.6c-.9-.2-.9-1.4 0-1.6z"
       id="path1249"
       style="fill:#ffffff" />
    <circle
       cx="43.7"
       cy="165.9"
       r="2.2"
       id="circle1251"
       style="fill:#ffffff" />
    <circle
       cx="50.4"
       cy="159.9"
       r="2.2"
       id="circle1253"
       style="fill:#ffffff" />
    <circle
       cx="19.1"
       cy="189.4"
       r="2.2"
       id="circle1255"
       style="fill:#ffffff" />
    <circle
       cx="25.8"
       cy="183.4"
       r="2.2"
       id="circle1257"
       style="fill:#ffffff" />
    <circle
       cx="43.7"
       cy="183.4"
       r="2.2"
       id="circle1259"
       style="fill:#ffffff" />
    <circle
       cx="50.4"
       cy="189.4"
       r="2.2"
       id="circle1261"
       style="fill:#ffffff" />
    <circle
       cx="25.8"
       cy="165.9"
       r="2.2"
       id="circle1263"
       style="fill:#ffffff" />
    <circle
       cx="19.1"
       cy="159.9"
       r="2.2"
       id="circle1265"
       style="fill:#ffffff" />
    <path
       d="m86 172.5 19 23 19-23z"
       id="path1267"
       style="fill:#ffffff" />
    <path
       d="m98.2 158 6.8 10 6.7-10z"
       id="path1269"
       style="fill:#ffffff" />
    <path
       d="m124 168-6.8-10-6.7 10z"
       id="path1271"
       style="fill:#ffffff" />
    <path
       d="m99.5 168-6.8-10-6.7 10z"
       id="path1273"
       style="fill:#ffffff" />
    <path
       d="m174.9 433.9-20.8 35.3h41.8zm.1 23.9c-2.3 0-4.2-1.9-4.2-4.2s1.9-4.2 4.2-4.2 4.2 1.9 4.2 4.2-1.9 4.2-4.2 4.2z"
       id="path1275"
       style="fill:#ffffff" />
    <path
       d="m89.2 250.2c-2.4 2.4-4.5 8.4-4.5 8.4s6-2.1 8.4-4.5z"
       id="path1277"
       style="fill:#ffffff" />
    <path
       d="m96 257c-2.4 2.4-4.5 8.4-4.5 8.4s6-2.1 8.4-4.5z"
       id="path1279"
       style="fill:#ffffff" />
    <path
       d="m116.1 247.4 6.7-11.1c1.6-2.7 1.4-8.1.3-9.2s-6.5-1.4-9.2.3l-11.1 6.7-12.2-.2-5.7 5.7 12.9 12.9 12.9 12.9 5.7-5.7zm-10.8-10.8 11.1-6.7 3.9 3.9-6.7 11z"
       id="path1281"
       style="fill:#ffffff" />
    <path
       d="m122.1 378.6c-2.6-4.2-8-8.1-8-8.1s.6-2.2.4-2.9c-.1-.4-1.1-.9-1.1-.9s-1.1-.5-1.4-.3c-.6.3-2 2.1-2 2.1s-6.4-1.9-11.3-1.4-10.8 3-10.8 3-1.6 3.2-1.8 3.6c1.3 1.5 5.6 4.3 6.2 4.7.8-1.1 2.1-2.7 2.5-3 .7-.6 1.3-.6 2-.2.9.6-.1 2.8-1.4 5.1 1.9 1.3 5.8 3.2 7 3.9 1.1-2.2 2.8-4.6 4.3-3.9s.6 3.5-.5 5.8c1.3.6 5.2 2.5 7.3 3.2 1-2.4 2.2-4.6 3.2-4.2.8.3 1.1.8 1.1 1.7 0 .6-.5 2.6-.9 3.8.8.3 5.6 2 7.6 2.1.2-.4 1.8-3.6 1.8-3.6s-1.6-6.3-4.2-10.5z"
       id="path1283"
       style="fill:#ffffff" />
    <path
       d="m92.4 404.1 7.3-14.8 4 2-7.3 14.8z"
       id="path1285"
       style="fill:#ffffff" />
    <path
       d="m187.8 376.9-6.1 4.1-6.1-4.1-6.1 4.1v-9.2l-6.1-8.2-6.1 8.2v30.7h13.8v-6.9c0-2.5 2.1-4.6 4.6-4.6s4.6 2.1 4.6 4.6v6.9h13.8v-21.5z"
       id="path1287"
       style="fill:#ffffff" />
    <path
       d="m58.3 396.8c-1.4-1.9-3.8-4.9-8-8.5-4.6-3.8-8.1-5.2-8.1-5.2s2-3.7 2.8-5.1 1.9-3.9 1.4-4.5c-.5-.5-3.1.7-4.5 1.4-1.4.8-5.1 2.8-5.1 2.8s-1.4-3.5-5.2-8.1c-3.5-4.3-6.5-6.7-8.5-8-1-.7-1.6 1-2.1 3.9-1 5.7-1.5 12.7 4.6 23 0 0-6.5 4.6-8.2 5.6-1 .6-.8 1.4-.4 1.9.4.4 3 3.2 3.4 3.5.3.4 3.1 3 3.5 3.4s1.2.6 1.9-.4c1.1-1.6 5.6-8.2 5.6-8.2 10.2 6.1 17.3 5.6 23 4.6 2.9-.4 4.6-1 3.9-2.1z"
       id="path1289"
       style="fill:#ffffff" />
    <path
       d="m108.3 449.9c-9-3.6-17.1-1.7-26 2.5 3.6 9.2 8.1 16.1 17.2 19.7 9 3.6 17.1 1.7 26-2.5-3.6-9.1-8.2-16.1-17.2-19.7zm2.1 13.7c-1.4 3.6-5.5 5.4-9.2 3.9-3.6-1.4-5.4-5.5-3.9-9.2 1.4-3.6 5.5-5.4 9.2-3.9 3.6 1.5 5.4 5.6 3.9 9.2z"
       id="path1291"
       style="fill:#ffffff" />
    <path
       d="m126 453.3c.2.5.2.9-.2 1.2-.6.4-.5.3-1 .5-.4.2-.7.1-1.1-.5-4.3-6.2-7.5-9.2-13.9-11.7-6.5-2.5-11.6-2.2-17.2-1.4-3.2.5-3.4-.4-2.6-1.3s2.7-1.1 2.5-2.1-2.9.6-3.9-.1c-1.2-.8 1.5-2.7 5.6-3.6 9.6-1.9 24 1.8 31.8 19z"
       id="path1293"
       style="fill:#ffffff" />
    <path
       d="m47.2 29.2h-2.8v-5.4c0-4.3-4.1-9-9.5-9.1-5.4 0-9.5 4.8-9.5 9.1v5.4h-2.6c-1.3 0-2.3 1-2.3 2.3v17.3c0 1.3 1 2.3 2.3 2.3h24.4c1.3 0 2.3-1 2.3-2.3v-17.2c0-1.3-1-2.4-2.3-2.4zm-18.3-5.3c0-2.3 2.3-5.6 6-5.6s6 3.3 6 5.6v5.4h-12z"
       id="path1305"
       style="fill:#ffffff" />
    <path
       d="m57 518.4s-5.1.9-10.1 4.4c0 .7.1 1.4.1 2.2 0 8.6-3.5 15-6.1 18.6 3.7-.5 8.5-2.1 12.3-7.1 5.6-7.5 3.8-18.1 3.8-18.1z"
       id="path1307"
       style="fill:#ffffff" />
    <path
       d="m25.5 513c-2.9-2.8-5.4-3.9-5.4-3.9s-1 2.5-1.3 6.3c1.5.6 3.3 1.4 5.1 2.5.4-1.8 1-3.4 1.6-4.9z"
       id="path1309"
       style="fill:#ffffff" />
    <path
       d="m35 506.5s-7.4 6.8-7.4 18.5 7.4 18.5 7.4 18.5 7.4-6.8 7.4-18.5-7.4-18.5-7.4-18.5z"
       id="path1311"
       style="fill:#ffffff" />
    <path
       d="m51.2 515.4c-.3-3.9-1.3-6.3-1.3-6.3s-2.4 1.1-5.4 3.9c.6 1.5 1.2 3.1 1.6 4.9 1.8-1.1 3.5-1.9 5.1-2.5z"
       id="path1313"
       style="fill:#ffffff" />
    <path
       d="m13 518.4s5.1.9 10.1 4.4c0 .7-.1 1.4-.1 2.2 0 8.6 3.5 15 6.1 18.6-3.7-.5-8.5-2.1-12.3-7.1-5.6-7.5-3.8-18.1-3.8-18.1z"
       id="path1315"
       style="fill:#ffffff" />
    <path
       d="m86 514.5 1 4v25.5h11.3v-18.8c0-3.7 3-6.7 6.7-6.7s6.7 3 6.7 6.7v18.8h11.3v-25.5l1-4z"
       id="path1317"
       style="fill:#ffffff" />
    <path
       d="m121 506h-9.8l-6.2-4-6.2 4h-9.8l-1 4h34z"
       id="path1319"
       style="fill:#ffffff" />
    <path
       d="m194 513.8c-2.7-2-6.3-2.6-9.8-2.8.3-1.4.8-3.5 1.3-4.7.9-2.4-.6-1.9-1.5-.8-.6.7-2.2 3-2.9 4.3-.6 1.1-1.9.7-1.7-.4.3-2.1 1-4.4 2.1-7 .7-1.7-.7-1.5-1.4-.8-1.7 1.8-4.1 6.1-4.7 7.3-.6 1.3-2.1.7-1.9-.4.4-2.5 2.6-7.8 2.9-8.4.4-.9-.5-1.6-1.8-.4-.7.6-3.6 4.1-5.9 9.1-3.7-.7-7.5-.7-11 1.5-6.3 4.1-6.3 13.3-2 18 3.1 3.5 4.9 5 6.2 9.8 1.6 5.8 5.3 9.9 11.1 10.6 5.3.6 9.2-3.3 11.6-7.6 2.1-3.7 4.6-6 9.9-9.8 5.9-4.2 4.9-13.5-.5-17.5zm-30.4 12.8c-3.4-.4-5.9-3.5-5.4-6.9.4-3.4 3.5-5.9 6.9-5.4 3.4.4 5.9 3.5 5.4 6.9-.3 3.4-3.4 5.8-6.9 5.4zm12.2 7c-.2.8-1.2 1.5-3.8 1-2.5-.5-2.7-1.5-2.4-2.5.3-1.1 3.1-5.2 4.1-5s2.4 5.1 2.1 6.5zm15.8-9.9c-.4 3.5-3.6 6.1-7.2 5.6-3.5-.4-6.1-3.6-5.6-7.2.4-3.5 3.6-6.1 7.2-5.6 3.5.4 6.1 3.6 5.6 7.2z"
       id="path1321"
       style="fill:#ffffff" />
    <path
       d="m25 582.8-.2-9c0-.7-.6-1.2-1.3-1.3-.7 0-1.3.6-1.3 1.3l-.2 9-5.2 5.2v24.5h13.5v-24.5z"
       id="path1323"
       style="fill:#ffffff" />
    <path
       d="m48.4 572.5h-13.7v40h19.5v-21.5l-5.9-5.9zm-3.4 10.1h-6.8v-6.8h6.8z"
       id="path1325"
       style="fill:#ffffff" />
    <path
       d="m130.9 591s-8.4-2.1-17.4-.6c-7.5 1.2-15.2 2.5-17.8 2.9-3.7-3.9-10.6-11.1-11.2-11.7-.9-1-2.1-.7-1.8.6l4.1 16.5c-1.2.3-4.1 1.1-5.4 3.5 2.3 1.5 5.3 1 6.5.7l.9 3.6 8.1-1-1.7 6.9c.1.4.4.7.6.7l10.9-2.4c.5-.1.8-.5.9-.9l2.9-6.3s4.9-1.1 10.4-3.1c8.2-2.9 10.8-6.4 10.8-6.4z"
       id="path1327"
       style="fill:#ffffff" />
    <path
       d="m104.9 581.6c-4.1 0-7.2 3.1-7.9 7l15.4-2.5c-1.4-2.6-4.4-4.5-7.5-4.5z"
       id="path1329"
       style="fill:#ffffff" />
    <path
       d="m174.4 573.7-22.4 33.6h34.7z"
       id="path1331"
       style="fill:#ffffff" />
    <path
       d="m181.3 579.4 10.2 27.9h7.5z"
       id="path1333"
       style="fill:#ffffff" />
  </g>
  <path
     style="fill:#ffffff;stroke-width:0.32"
     d="m 169.22,122.58798 c 0,-0.27975 1.44,-3.0192 3.2,-6.08766 1.76,-3.06846 3.2,-5.71804 3.2,-5.88795 0,-0.60698 -1.2141,-0.61672 -8.16,-0.0654 -3.872,0.30731 -7.15046,0.46688 -7.28547,0.3546 -0.28175,-0.23432 5.09261,-22.406146 5.54144,-22.861126 0.26233,-0.26592 6.13064,0.27589 15.34403,1.4167 1.32,0.16344 3.48,0.38754 4.8,0.49799 1.32,0.11045 2.45228,0.25259 2.51618,0.31586 0.0639,0.0633 -1.49749,2.9462 -3.46973,6.40649 -1.97225,3.460276 -3.46452,6.406466 -3.31617,6.547066 0.14834,0.1406 2.06972,0.64427 4.26972,1.11926 3.99975,0.86358 4.8,1.17987 4.8,1.8972 0,0.21025 -4.56272,3.90062 -10.13938,8.20082 -12.49496,9.63493 -11.30062,8.77398 -11.30062,8.14619 z m -80.64,-3.36766 c -0.62118,-0.62118 -0.64,-1.06667 -0.64,-15.1504 0,-13.651046 0.0347,-14.541766 0.5852,-15.039996 0.49787,-0.45057 1.42559,-0.5296 6.21677,-0.5296 h 5.63158 l 0.67018,0.85199 c 0.78205,0.99422 0.65301,0.40123 1.90364,8.74801 1.65068,11.016776 1.55082,10.647076 1.59899,5.919996 0.0233,-2.288 0.12462,-4.466446 0.22513,-4.840986 0.2439,-0.90883 1.4154,-1.39901 3.34357,-1.39901 H 109.7 v -4.5688 c 0,-6.36646 -0.39596,-5.99248 6.33814,-5.9863 2.93803,0.003 5.55786,0.14137 5.82186,0.30817 0.41375,0.26142 0.49257,2.43589 0.57109,15.755106 l 0.0911,15.45182 -0.68654,0.56 c -0.63343,0.51668 -1.92163,0.56 -16.65109,0.56 -15.53788,0 -15.98165,-0.0171 -16.60455,-0.64 z m 22.08,-17.28 v -1.28 h -1.28 -1.28 v 1.28 1.28 h 1.28 1.28 z m 4.96,0 c 0,-1.06323 -0.0608,-1.12503 -1.2,-1.21932 l -1.2,-0.0993 v 1.31863 1.31863 l 1.2,-0.0993 c 1.13918,-0.0943 1.2,-0.15609 1.2,-1.21932 z m 4.64,0 v -1.28 h -1.28 -1.28 v 1.28 1.28 h 1.28 1.28 z m -27.2,-7.519996 c 0,-1.03111 -0.0762,-1.12 -0.96,-1.12 -0.88381,0 -0.96,0.0889 -0.96,1.12 0,1.03111 0.0762,1.12 0.96,1.12 0.88381,0 0.96,-0.0889 0.96,-1.12 z m 3.46028,0.08 c -0.0836,-0.86659 -0.24702,-1.05688 -0.98028,-1.14126 -0.81443,-0.0937 -0.88,-0.0162 -0.88,1.04 0,1.05998 0.0698,1.14126 0.98028,1.14126 0.91318,0 0.97341,-0.0712 0.88,-1.04 z m 3.25972,-0.08 c 0,-1.03111 -0.0762,-1.12 -0.96,-1.12 -0.88381,0 -0.96,0.0889 -0.96,1.12 0,1.03111 0.0762,1.12 0.96,1.12 0.88381,0 0.96,-0.0889 0.96,-1.12 z m 14.08,-4 c 0,-0.85334 -0.10667,-0.96 -0.96,-0.96 -0.85333,0 -0.96,0.10666 -0.96,0.96 0,0.85333 0.10667,0.96 0.96,0.96 0.85333,0 0.96,-0.10667 0.96,-0.96 z m 3.46125,0.08 c -0.0854,-0.74194 -0.25186,-0.88 -1.06125,-0.88 -0.80939,0 -0.97588,0.13806 -1.06125,0.88 -0.094,0.81709 -0.0181,0.88 1.06125,0.88 1.07941,0 1.15527,-0.0629 1.06125,-0.88 z m 2.93875,-0.08 c 0,-0.81067 -0.12444,-0.96 -0.8,-0.96 -0.67556,0 -0.8,0.14933 -0.8,0.96 0,0.81066 0.12444,0.96 0.8,0.96 0.67556,0 0.8,-0.14934 0.8,-0.96 z M 44.51739,117.9544 c -1.34964,-0.82292 -1.97084,-1.82514 -2.20921,-3.56422 -0.39628,-2.89118 1.45325,-5.0862 4.28771,-5.08866 1.67416,-0.002 2.9926,0.6387 3.87888,1.88337 1.30063,1.82657 0.65074,5.55903 -1.21528,6.97959 -0.82314,0.62665 -3.56935,0.50499 -4.7421,-0.21008 z m -20.69921,-0.65511 c -3.01851,-0.93648 -4.36985,-4.82046 -2.589,-7.44122 2.74422,-4.03848 8.78584,-2.14627 8.78962,2.75288 7.1e-4,0.90297 -0.2327,1.94803 -0.5588,2.5021 -1.04806,1.78072 -3.6718,2.79744 -5.64182,2.18624 z m 9.50996,-3.51853 c -0.7147,-0.28821 -0.87759,-0.63776 -1.2041,-2.58394 -0.30064,-1.79202 -1.88528,-4.01189 -3.42436,-4.79707 -1.99481,-1.01767 -4.62181,-1.17192 -6.4191,-0.37689 -1.66365,0.73591 -2.77697,2.05563 -3.92604,4.6539 -0.80015,1.80926 -0.81723,1.82356 -2.1789,1.82356 -2.24718,0 -6.74193,-0.64985 -7.21599,-1.04328 -0.58211,-0.48311 -0.31353,-2.12641 0.95395,-5.83672 1.24963,-3.65805 2.33113,-5.803676 3.14484,-6.239166 0.35162,-0.18818 1.44822,-0.49168 2.4369,-0.67445 2.08385,-0.38522 5.51594,-2.63193 7.70888,-5.04638 l 1.34421,-1.48 4.89579,0.0388 c 4.30194,0.0341 5.57504,0.1802 10.49578,1.20461 7.67224,1.59722 8.3903,1.86252 9.84006,3.63564 2.43002,2.971996 3.49462,3.833726 5.60315,4.535396 2.55442,0.85006 3.70272,1.99815 5.14649,5.14556 1.89803,4.1377 2.31418,5.58188 1.88187,6.53071 -0.37425,0.8214 -0.41215,0.82925 -3.98471,0.82492 -4.24374,-0.005 -5.04686,-0.16518 -5.04686,-1.0057 0,-1.03149 -1.21408,-3.0683 -2.31705,-3.8872 -2.07814,-1.54293 -5.10202,-1.96028 -7.15264,-0.98719 -1.46285,0.69417 -2.8957,2.38768 -3.37572,3.98983 -0.26403,0.88126 -0.64566,1.41155 -1.15526,1.6053 -0.95556,0.3633 -5.12697,0.34246 -6.05119,-0.0302 z M 48.9,101.28757 c 0,-0.87923 -1.42306,-2.952836 -2.52848,-3.684366 -1.29292,-0.85562 -7.94942,-2.30766 -8.36339,-1.82438 -0.28033,0.32728 -1.0406,3.9357 -0.866,4.11029 0.0765,0.0765 2.42935,0.427696 5.2285,0.780366 2.79916,0.35267 5.23337,0.69952 5.40937,0.77077 0.61138,0.2475 1.12,0.17817 1.12,-0.15268 z M 34.94576,99.194154 c 0.10684,-0.2784 0.19424,-1.33769 0.19424,-2.35399 v -1.84782 l -2.64,-0.26691 c -5.42307,-0.54829 -7.23128,-0.0602 -9.02464,2.43603 -0.59958,0.83457 -1.00432,1.60323 -0.89942,1.70813 0.1049,0.1049 0.92273,0.2014 1.81739,0.21445 0.89467,0.0131 2.27467,0.13902 3.06667,0.27995 0.792,0.14092 2.75659,0.27425 4.36576,0.29627 2.3975,0.0328 2.96084,-0.0513 3.12,-0.46611 z m 70.93452,-7.20493 c -0.0112,-0.28111 -0.34428,-0.66736 -0.74028,-0.85834 -0.58714,-0.28317 -0.61476,-0.35124 -0.14969,-0.3689 0.31367,-0.0119 0.70054,-0.34566 0.85972,-0.74166 0.228,-0.56725 0.29371,-0.59901 0.30969,-0.14969 0.0112,0.31367 0.34428,0.70054 0.74028,0.85972 0.56724,0.228 0.599,0.29371 0.14969,0.30968 -0.31367,0.0112 -0.70054,0.34429 -0.85972,0.74029 -0.18886,0.46987 -0.29645,0.54244 -0.30969,0.2089 z"
     id="path1359"
     sodipodi:nodetypes="sssssssssssssssssssscssssscscsscsssscccccccccsscccssscccccccccsssssssssssssssssssssssssssssssscssssssssssssssssssscsssssscsssssssssssssssscssssssssssssssss" />
</svg>
