<?xml version="1.0" encoding="UTF-8" standalone="no"?>
<svg
   xmlns:dc="http://purl.org/dc/elements/1.1/"
   xmlns:cc="http://creativecommons.org/ns#"
   xmlns:rdf="http://www.w3.org/1999/02/22-rdf-syntax-ns#"
   xmlns:svg="http://www.w3.org/2000/svg"
   xmlns="http://www.w3.org/2000/svg"
   xmlns:sodipodi="http://sodipodi.sourceforge.net/DTD/sodipodi-0.dtd"
   xmlns:inkscape="http://www.inkscape.org/namespaces/inkscape"
   viewBox="0 0 126 150"
   version="1.1"
   id="svg897"
   sodipodi:docname="switch-casque.svg"
   inkscape:version="1.0.2 (e86c870, 2021-01-15)">
  <metadata
     id="metadata903">
    <rdf:RDF>
      <cc:Work
         rdf:about="">
        <dc:format>image/svg+xml</dc:format>
        <dc:type
           rdf:resource="http://purl.org/dc/dcmitype/StillImage" />
      </cc:Work>
    </rdf:RDF>
  </metadata>
  <defs
     id="defs901" />
  <sodipodi:namedview
     pagecolor="#ffffff"
     bordercolor="#666666"
     borderopacity="1"
     objecttolerance="10"
     gridtolerance="10"
     guidetolerance="10"
     inkscape:pageopacity="0"
     inkscape:pageshadow="2"
     inkscape:window-width="1920"
     inkscape:window-height="1017"
     id="namedview899"
     showgrid="false"
     inkscape:zoom="2.781746"
     inkscape:cx="-58.413897"
     inkscape:cy="53.426096"
     inkscape:window-x="-8"
     inkscape:window-y="-8"
     inkscape:window-maximized="1"
     inkscape:current-layer="svg897" />
  <path
     d="m7.86 20.29a1.64 1.64 0 0 0 -1.64 1.64v32.19l3.28-2.25v-29.94a1.65 1.65 0 0 0 -1.64-1.64z"
     fill="#d2d2d2"
     id="path869" />
  <path
     d="m17.31 46.5-11.09 7.62v27.24h6.67v-9.72c0-2.15-.72-6.69 3.26-6.69z"
     fill="#895e08"
     id="path871" />
  <path
     d="m118.71 20.29a1.64 1.64 0 0 0 -1.64 1.64v29.94l3.28 2.25v-32.19a1.65 1.65 0 0 0 -1.64-1.64z"
     fill="#d2d2d2"
     id="path873" />
  <path
     d="m109.25 46.5 11.1 7.62v27.24h-6.68v-9.72c0-2.15.73-6.69-3.25-6.69z"
     fill="#895e08"
     id="path875" />
  <path
     d="m16.15 65c-4 0-3.26 4.54-3.26 6.69v16.8a4 4 0 0 0 3.88 3.51h1.51v-27z"
     fill="#ffc61a"
     id="path877" />
  <path
     d="m0 0h126v150h-126z"
     fill="none"
     opacity=".6"
     id="path879" />
  <path
     d="m94.73 44.18c-20.68 10.82-35.73 13.61-34.9 12.46s10.35-10.82 7.32-9a108.83 108.83 0 0 1 -38.66 13.81c-.95 11.81-.92 13.32-.32 19.92.53 5.95 2.61 8.54 3.16 11.74 1.24 7.19.51 15.17 1.49 21.2.65 10.4 5.79 15.25 5.79 15.25 3.18 3 2.47 2.28 6.48 7 7.33 8.66 12.1 12.44 17 12.41 5.14 0 12.23-7.19 14.71-9.41s5.36-5.53 9.4-9.8c0 0 3.06-2.67 4.71-15.48.94-6.09.49-13.23 3.52-21.53 3-8.14 2.71-11.46 2.71-11.46 1-8.54 1-29.48 1-29.48-.04-1.06.2-9.52-3.41-7.63z"
     fill="#d2d2d2"
     id="path881" />
  <path
     d="m102.63 59.17a5.86 5.86 0 0 0 -4.63 2.56c-.11 6.62-.36 14.94-.9 19.59a13.53 13.53 0 0 1 -.29 3v8c0 2.28 2.41 5.81 5.39 5.81a6.27 6.27 0 0 0 6.23-5.81v-27.67c.01-3.1-1.94-5.48-5.8-5.48z"
     fill="#167085"
     id="path883" />
  <path
     d="m28.17 81.37c-.59-6.6-.63-8.11.32-19.88a5.86 5.86 0 0 0 -4.71-2.29 5.19 5.19 0 0 0 -5.5 5.45v27.67a6.5 6.5 0 0 0 6.23 5.81c3 0 5.39-3.53 5.39-5.81v-3.63a25.8 25.8 0 0 1 -1.73-7.32z"
     fill="#167085"
     id="path885" />
  <path
     d="m110.42 65h-2v27h1.35a4 4 0 0 0 3.88-3.58v-16.78c.02-2.15.75-6.64-3.23-6.64z"
     fill="#ffc61a"
     id="path887" />
  <path
     d="m109.25 46.5 7.81 5.36c-2.49-25.13-10.71-33.29-20.24-40.36-9.37-6.94-20.82-10.18-32.6-10.5h-.94-.94c-11.8.3-23.23 3.54-32.59 10.48-9.54 7.09-17.75 15.25-20.24 40.38l7.8-5.36a63.45 63.45 0 0 1 1.32-6.93c3.57-10.75 9.48-17.91 16-22.65 10.37-7.49 22.17-8.92 28.65-9.05 6.48.13 18.33 1.56 28.72 9.13 6.51 4.74 12.41 11.9 16 22.65a61.37 61.37 0 0 1 1.32 6.92z"
     fill="#ffc61a"
     id="path889" />
  <path
     d="m32.81 114.31c-1-6-.25-14-1.49-21.2a24.57 24.57 0 0 0 -1.43-4.42v3.63c0 2.28-2.41 5.81-5.39 5.81a6.5 6.5 0 0 1 -6.23-5.81v-.32h-1.5a4 4 0 0 1 -3.88-3.58v-7.06h-3.07c-3.82 10.14-9.97 13.35-9.26 13.36 8.15.06 11.44-3.57 11.44-3.57-1.78 5.52-12.18 11-11.27 11.17a22.79 22.79 0 0 0 16.62-4.18c1.47 8.53 4.91 22.69 12.09 27.92.68.55.14-2.81.14-3.56.55.36 3.05 4.56 9 7.06.02 0-5.12-4.85-5.77-15.25z"
     id="path891" />
  <path
     d="m109.79 92h-1.35v.3a6.27 6.27 0 0 1 -6.23 5.81c-3 0-5.39-3.53-5.39-5.81v-8a52.05 52.05 0 0 1 -2.42 8.5c-3 8.3-2.58 15.44-3.52 21.53-1.65 12.81-4.71 15.48-4.71 15.48 5.89-2.65 8.12-8.18 8.27-7.59.33 1.26-.61 3.47-.63 5.55a22 22 0 0 0 7.57-9c.52 1.23.55 2.86 1.21 4.1 0 0 8.9-14.46 10-25.8.25-2.64.36-4.81.37-6.66a4.06 4.06 0 0 1 -3.17 1.59z"
     id="path893" />
  <path
     d="m98.1 51.84s0 4.35-.09 9.89a5.86 5.86 0 0 1 4.62-2.56c3.86 0 5.81 2.38 5.81 5.48v.35h2l-1.17-18.43a61.37 61.37 0 0 0 -1.32-6.92c-3.59-10.8-9.49-17.96-15.95-22.65-10.39-7.57-22.24-9-28.72-9.13-6.48.13-18.28 1.56-28.66 9.13-6.51 4.74-12.42 11.9-16 22.65a63.45 63.45 0 0 0 -1.32 6.93l-1.15 18.42h2.13v-.3a5.19 5.19 0 0 1 5.5-5.45 5.86 5.86 0 0 1 4.71 2.29 108.83 108.83 0 0 0 38.66-13.91c3-1.81-6.53 8-7.32 9s14.22-1.63 34.9-12.45c3.61-1.89 3.37 6.57 3.37 7.66z"
     id="path895" />
  <g
     id="g935">
    <path
       style="fill:#fdc418;stroke-width:0.32"
       d="m 35.323799,90.520961 8.060272,-20.216284 6.915365,-0.381293 c 0,0 -6.847162,13.317481 -8.368085,20.792104 -1.796585,0.07464 -6.607552,-0.194527 -6.607552,-0.194527 z m 41.018305,-0.07612 8.132231,-20.309262 3.319681,0.231443 -8.714664,20.25427 z m 2.737248,0.176451 8.834456,-20.819567 c 0,0 2.047895,0.300559 3.983531,0.283714 l 3.888282,-0.03384 -4.483464,10.61791 -3.911528,9.855323 -3.89193,-0.352832 z m -48.502673,-1.789809 8.003269,-18.744329 3.142526,0.05097 -7.503857,20.3052 z"
       id="path947"
       sodipodi:nodetypes="ccccccccccccscccccccccc" />
    <path
       style="fill:#6a6a6a;stroke-width:0.32"
       d="m 27.569594,91.12 -0.609596,-0.72 0.72,0.609597 c 0.676623,0.57287 0.865677,0.830403 0.609596,0.830403 -0.06072,0 -0.384722,-0.324 -0.72,-0.72 z m 70.430404,0.08 c 0.318557,-0.352 0.651194,-0.64 0.739194,-0.64 0.088,0 -0.100637,0.288 -0.419194,0.64 -0.318557,0.352 -0.651193,0.64 -0.739193,0.64 -0.088,0 0.100636,-0.288 0.419193,-0.64 z"
       id="path943" />
    <path
       style="fill:#885d07;stroke-width:0.32"
       d="M 34.238408,90.095097 33.081659,89.793869 37.06372,80.32 c 2.106699,-5.012125 4.076923,-9.899488 4.078424,-10.075488 0.0016,-0.176 0.708296,-1.109555 1.483026,-0.680777 l 1.472351,0.814881 -0.508204,1.210692 C 43.309806,72.255187 41.493867,76.616 39.553896,81.28 c -1.939968,4.664 -3.698683,8.773096 -3.816021,8.883746 -0.117338,0.110653 -0.845236,0.101719 -1.499467,-0.06865 z m 6.557335,0.137257 c 0,-0.149478 1.90318,-4.812207 4.12631,-10.141938 L 48.96411,70.4 52.894917,69.256121 c 5.521668,-1.606825 6.749308,1.759844 6.422409,7.6013 -0.234077,4.182819 -1.101252,8.028379 -2.098753,10.197647 -1.382045,3.005532 -4.083268,4.114063 -11.343511,4.358111 -2.772,0.09318 -5.079319,-1.03135 -5.079319,-1.180825 z m 38.283609,0.388938 8.189391,-20.328566 1.002157,-0.06975 -8.302099,20.432491 z m 7.439222,-0.231969 c 0.05867,-0.162538 2.081422,-5.070049 4.281424,-10.361888 2.150354,-5.172417 4.063207,-9.794855 4.063207,-9.794855 0,0 1.93519,-0.415598 2.733541,0.17119 0.572141,0.420523 1.018802,1.174125 0.987839,5.837978 -0.0579,8.722323 -2.93101,12.725284 -7.058069,13.95089 -1.810352,0.537616 -5.178752,0.669907 -5.007942,0.196685 z m -14.862459,0.23229 c -1.506385,-0.350327 -3.674217,-2.226609 -4.528706,-4.084324 -0.976848,-2.123732 -0.731842,-5.762222 -0.964517,-9.919966 -0.174969,-3.126595 0.281251,-4.748068 0.744518,-5.643926 0.944653,-1.826752 18.821178,-0.665225 10.910239,-0.549226 l 7.188521,-0.105406 -8.201636,19.796604 c -0.46243,0.329472 -0.963003,0.782158 -1.38339,0.736484 -3.430869,-0.372758 -3.011092,-0.0549 -3.765029,-0.23024 z M 28.69886,87.52215 c -0.345175,-0.438819 -0.952499,-1.986819 -1.349611,-3.44 -0.597329,-2.185856 -0.61513,-3.92102 -0.64294,-8.110018 -0.04264,-6.422442 4.962403,-9.885588 7.63074,-8.310667 l 4.967743,2.636086 -1.849293,4.406402 C 36.492752,76.997938 34.836136,81.004 33.759016,83.6 c -1.077117,2.596 -2.289764,5.20306 -2.420161,5.20306 -0.130396,0 -2.294821,-0.842094 -2.639995,-1.28091 z"
       id="path941"
       sodipodi:nodetypes="scscscsssssscssssscccccsscsssssssssccsssssscssss" />
    <path
       style="fill:#010100;stroke-width:0.32"
       d="M 33.679998,94.290419 C 31.404717,93.703437 29.911214,92.924211 28.237145,91.450637 25.23387,88.807046 24.533913,86.114509 24.345352,76.48 24.181404,68.103094 24.30964,67.569664 26.787803,66.32 l 1.427805,-0.72 h 34.74439 34.744391 l 1.427804,0.72 c 2.478167,1.249664 2.606397,1.783094 2.442447,10.16 -0.18861,9.637091 -0.88823,12.326797 -3.89468,14.973181 C 94.338821,94.39417 92.047605,94.856179 81.928545,94.62935 72.093675,94.408893 69.732139,93.79527 66.698478,90.671965 64.899665,88.819997 63.307214,83.279338 63.286337,78.8 c -0.0035,-0.748 -0.150339,-1.36 -0.326339,-1.36 -0.176,0 -0.322851,0.612 -0.326339,1.36 -0.01078,2.313811 -0.608234,5.730525 -1.443238,8.253629 -1.203984,3.638041 -3.520077,5.713731 -7.670423,6.874256 -2.581657,0.721888 -17.397641,0.992617 -19.84,0.362534 z m 19.538787,-4.798998 c 2.452647,-0.787645 3.559818,-2.282499 4.470266,-6.035555 0.703402,-2.899572 0.999373,-9.860135 0.47327,-11.130256 C 57.369419,70.411373 57.277963,70.4 42.678747,70.4 c -11.639728,0 -13.334913,0.06188 -13.775892,0.502858 -0.96623,0.96623 -0.543513,10.61672 0.636765,14.537142 0.629873,2.092192 2.355335,3.913171 4.193837,4.425997 0.772042,0.21535 4.309552,0.305657 9.546541,0.243705 6.595379,-0.07802 8.655552,-0.206179 9.938787,-0.618281 z M 93.331653,89.28 c 2.944259,-1.668547 3.810896,-4.28071 4.091033,-12.330954 0.169824,-4.880086 0.132189,-5.508457 -0.359357,-6 C 96.562251,70.447968 95.354683,70.4 83.241249,70.4 c -14.396614,0 -14.633366,0.02688 -15.41895,1.751059 -0.462189,1.014394 -0.488816,5.572224 -0.05053,8.648941 0.681904,4.786861 1.837197,7.248342 3.870371,8.246253 1.865507,0.915616 4.457994,1.138848 12.597856,1.084771 7.557168,-0.05021 7.702576,-0.06382 9.091655,-0.851024 z"
       id="path937" />
  </g>
</svg>
