<?xml version="1.0" encoding="UTF-8" standalone="no"?>
<svg
   xmlns:dc="http://purl.org/dc/elements/1.1/"
   xmlns:cc="http://creativecommons.org/ns#"
   xmlns:rdf="http://www.w3.org/1999/02/22-rdf-syntax-ns#"
   xmlns:svg="http://www.w3.org/2000/svg"
   xmlns="http://www.w3.org/2000/svg"
   xmlns:xlink="http://www.w3.org/1999/xlink"
   xmlns:sodipodi="http://sodipodi.sourceforge.net/DTD/sodipodi-0.dtd"
   xmlns:inkscape="http://www.inkscape.org/namespaces/inkscape"
   id="png"
   viewBox="0 0 370 80"
   version="1.1"
   sodipodi:docname="title.svg"
   inkscape:version="1.0.2 (e86c870, 2021-01-15)">
  <metadata
     id="metadata934">
    <rdf:RDF>
      <cc:Work
         rdf:about="">
        <dc:format>image/svg+xml</dc:format>
        <dc:type
           rdf:resource="http://purl.org/dc/dcmitype/StillImage" />
      </cc:Work>
    </rdf:RDF>
  </metadata>
  <sodipodi:namedview
     pagecolor="#ffffff"
     bordercolor="#666666"
     borderopacity="1"
     objecttolerance="10"
     gridtolerance="10"
     guidetolerance="10"
     inkscape:pageopacity="0"
     inkscape:pageshadow="2"
     inkscape:window-width="1920"
     inkscape:window-height="1017"
     id="namedview932"
     showgrid="false"
     inkscape:zoom="2.6793614"
     inkscape:cx="117.50233"
     inkscape:cy="38.063759"
     inkscape:window-x="-8"
     inkscape:window-y="-8"
     inkscape:window-maximized="1"
     inkscape:current-layer="g964" />
  <defs
     id="defs903">
    <linearGradient
       inkscape:collect="always"
       id="linearGradient3039">
      <stop
         style="stop-color:#d1d1d1;stop-opacity:1;"
         offset="0"
         id="stop3035" />
      <stop
         style="stop-color:#d1d1d1;stop-opacity:0;"
         offset="1"
         id="stop3037" />
    </linearGradient>
    <linearGradient
       inkscape:collect="always"
       id="linearGradient986">
      <stop
         style="stop-color:#d1d1d1;stop-opacity:1;"
         offset="0"
         id="stop982" />
      <stop
         style="stop-color:#d1d1d1;stop-opacity:0;"
         offset="1"
         id="stop984" />
    </linearGradient>
    <style
       id="style901">.cls-1{fill:#5a5a5a;}.cls-2{fill:#aaa;}</style>
    <linearGradient
       inkscape:collect="always"
       xlink:href="#linearGradient986"
       id="linearGradient988"
       x1="10.851233"
       y1="36.94591"
       x2="367.69001"
       y2="36.94591"
       gradientUnits="userSpaceOnUse" />
    <linearGradient
       inkscape:collect="always"
       xlink:href="#linearGradient986"
       id="linearGradient1058"
       x1="335.24435"
       y1="13.358998"
       x2="358.36838"
       y2="13.358998"
       gradientUnits="userSpaceOnUse" />
    <linearGradient
       inkscape:collect="always"
       xlink:href="#linearGradient3039"
       id="linearGradient3041"
       x1="352.64587"
       y1="25.768673"
       x2="347.17169"
       y2="3.9817638"
       gradientUnits="userSpaceOnUse" />
    <linearGradient
       inkscape:collect="always"
       xlink:href="#linearGradient3039"
       id="linearGradient3070"
       gradientUnits="userSpaceOnUse"
       x1="337.33917"
       y1="24.844994"
       x2="339.58432"
       y2="5.4332619"
       gradientTransform="translate(25.017309,-0.92844917)" />
  </defs>
  <title
     id="title905">info-titre</title>
  <g
     id="g964">
    <path
       style="color:#000000;font-style:normal;font-variant:normal;font-weight:normal;font-stretch:normal;font-size:medium;line-height:normal;font-family:sans-serif;font-variant-ligatures:normal;font-variant-position:normal;font-variant-caps:normal;font-variant-numeric:normal;font-variant-alternates:normal;font-variant-east-asian:normal;font-feature-settings:normal;font-variation-settings:normal;text-indent:0;text-align:start;text-decoration:none;text-decoration-line:none;text-decoration-style:solid;text-decoration-color:#000000;letter-spacing:normal;word-spacing:normal;text-transform:none;writing-mode:lr-tb;direction:ltr;text-orientation:mixed;dominant-baseline:auto;baseline-shift:baseline;text-anchor:start;white-space:normal;shape-padding:0;shape-margin:0;inline-size:0;clip-rule:nonzero;display:inline;overflow:visible;visibility:visible;opacity:1;isolation:auto;mix-blend-mode:normal;color-interpolation:sRGB;color-interpolation-filters:linearRGB;solid-color:#000000;solid-opacity:1;vector-effect:none;fill:url(#linearGradient3041);fill-opacity:1;fill-rule:nonzero;stroke:none;stroke-width:0.32;stroke-linecap:butt;stroke-linejoin:miter;stroke-miterlimit:4;stroke-dasharray:none;stroke-dashoffset:0;stroke-opacity:1;color-rendering:auto;image-rendering:auto;shape-rendering:auto;text-rendering:auto;enable-background:accumulate;stop-color:#000000;stop-opacity:1"
       d="M 335.24436,0.81457616 358.36838,1.0105631 355.05265,26.048281 349.6767,25.90342 Z"
       id="path978"
       sodipodi:nodetypes="ccccc" />
    <path
       style="fill:#adadad;stroke-width:0.32"
       d="m 360.06253,27.779917 -0.49876,-3.333223 5.19534,0.08849 -0.88689,3.214178 z M 178.60101,25.033529 c -0.27647,-0.269603 -0.4356,-1.065736 0.28899,-1.453529 0.50436,-0.269923 0.64,-0.670023 0.64,-1.887763 v -1.545246 l 4.37092,-0.308652 c 0,0 0.0101,0.916664 0.0101,2.328198 0,1.899713 -0.008,2.434569 -0.40584,2.587264 -0.27765,0.106544 -0.89638,0.04957 -1.1532,-0.207252 -0.25846,-0.258467 -0.28351,-0.663853 -0.13058,-0.99617 0.16279,-0.353734 0.52285,-0.527907 0.86777,-0.527907 0.0252,-0.368107 0.0169,-1.816846 0.0169,-1.816846 l -2.75715,0.216996 c 0,0 -0.0305,0.721806 -0.0305,1.770153 0,1.424372 -0.32981,1.886687 -0.67111,2.112989 -0.40238,0.219979 -0.81401,-0.04571 -1.04631,-0.272235 z"
       id="path976"
       sodipodi:nodetypes="cccccsssccsssscccscs" />
    <path
       style="fill:#525252;stroke-width:0.32"
       d="m 167.114,30.556 c -0.80793,-0.807934 -0.20437,-2.176 0.96,-2.176 0.4759,0 0.576,-0.271111 0.576,-1.56 0.005,-1.212914 -0.0104,-3.585644 -0.0104,-3.585644 0,0 1.92669,-0.172541 4.74203,-0.479983 l 2.01167,-0.219679 -0.0917,3.284503 c -0.0817,2.929256 -0.25788,3.286165 -0.7657,3.731166 -0.29899,0.262006 -0.55216,0.348562 -0.84205,0.304232 -0.22847,-0.03494 -0.49224,-0.13244 -0.73345,-0.418104 -0.38869,-0.46033 -0.43508,-1.152327 -0.2919,-1.483503 0.25024,-0.578776 1.08087,-0.887977 1.52212,-0.864651 0.0422,-0.555471 -0.024,-2.534259 -0.024,-2.534259 L 169.29,24.951172 v 2.610414 c 0,2.650779 -0.27568,3.378414 -1.28,3.378414 -0.2816,0 -0.6848,-0.1728 -0.896,-0.384 z m 179.78253,-4.789058 9.3562,0.04649 -1.44565,4.446487 -6.21683,0.04665 z"
       id="path970"
       sodipodi:nodetypes="ssccsccsssscccsssccccc" />
    <path
       style="fill:#000000;stroke-width:0.32"
       d="m 279.84331,60.089536 c -1.64558,-0.406368 -2.66256,-1.302042 -3.55917,-3.13464 -0.71523,-1.461875 -0.88681,-2.316835 -1.00691,-5.017168 -0.16069,-3.613162 -0.10304,-3.743168 1.90284,-4.290397 1.59556,-0.435289 1.86994,-0.06245 1.86994,2.540919 0,2.854067 0.53647,5.235699 1.40743,6.248262 0.58271,0.67743 0.8802,0.783878 1.69226,0.60552 1.31112,-0.287971 3.42732,-2.138755 4.45968,-3.900355 1.71059,-2.918899 2.57017,-7.494295 1.70993,-9.101671 -0.39769,-0.743091 -2.18469,-1.694672 -4.1511,-2.21047 -3.63107,-0.952442 -5.01047,-2.863837 -4.67517,-6.478243 0.36398,-3.923469 2.22611,-7.989913 4.86909,-10.632888 2.44079,-2.440787 5.04502,-3.360431 7.65498,-2.703237 2.72812,0.686951 4.123,3.302871 4.52081,8.47824 0.1938,2.521338 0.17331,2.631725 -0.58024,3.125466 -0.42962,0.2815 -1.23855,0.603302 -1.79763,0.715116 -0.89411,0.178823 -1.05584,0.09982 -1.34327,-0.656176 -0.17973,-0.472713 -0.33309,-1.678102 -0.34082,-2.678646 -0.0367,-4.75897 -2.50685,-6.918766 -5.20423,-4.550438 -1.55117,1.361943 -3.012,4.304729 -3.44826,6.946339 -0.5479,3.317677 -0.23321,3.803622 3.39925,5.249158 3.61219,1.437469 4.4429,1.980877 5.07972,3.322874 0.63428,1.33664 0.66652,5.14743 0.0627,7.415014 -0.62518,2.347904 -2.33643,5.398279 -4.12832,7.358896 -2.3526,2.574112 -5.86125,3.973853 -8.39354,3.348525 z M 65.584482,59.316394 c -2.62624,-1.388791 -3.352903,-4.184749 -2.402365,-9.243533 1.48168,-7.885536 4.852573,-14.044903 8.655693,-15.815872 1.899795,-0.884663 3.340294,-0.954 4.857926,-0.23384 1.310007,0.621638 1.885053,1.628675 2.168106,3.796851 0.655066,5.01776 -3.243584,10.303194 -9.97384,13.521622 l -2.32,1.109434 v 1.546326 c 0,1.220557 0.145254,1.648068 0.689475,2.029255 0.881101,0.617145 1.434291,0.334185 3.849171,-1.96888 1.936669,-1.847002 2.49912,-1.957811 3.624663,-0.714103 0.546425,0.603796 0.536038,0.675181 -0.276992,1.903754 C 73.008123,57.435779 69.264376,60.06 67.59061,60.06 c -0.329971,0 -1.23273,-0.334624 -2.006128,-0.743606 z M 68.8682,48.190307 c 3.917482,-1.998547 6.987108,-6.955641 6.214189,-10.0352 C 74.9151,37.488582 74.686204,37.34 73.826677,37.34 c -1.684525,0 -3.478342,2.264582 -4.91817,6.208883 C 68.165685,45.583795 67.23844,48.86 67.405336,48.86 c 0.08259,0 0.74088,-0.30136 1.462864,-0.669693 z m 230.19127,11.139555 c -0.69879,-0.395785 -1.61379,-1.221414 -2.03332,-1.834736 -0.71996,-1.052521 -0.75361,-1.312745 -0.5994,-4.635126 0.2641,-5.689802 2.56261,-12.243421 5.63378,-16.063264 3.18072,-3.956106 8.3548,-4.379754 9.84788,-0.806333 0.71982,1.722781 0.45356,5.249571 -0.54744,7.251258 -1.58705,3.173577 -5.48375,6.538358 -10.07096,8.696217 -1.16006,0.5457 -1.28914,0.727917 -1.37754,1.94458 -0.074,1.018713 0.0623,1.502336 0.56541,2.005417 0.63254,0.632535 0.70958,0.638848 1.67898,0.137555 0.55881,-0.288972 1.7884,-1.255891 2.73242,-2.14871 1.7006,-1.608355 1.72435,-1.618512 2.57857,-1.10289 1.39674,0.843098 1.25848,1.634352 -0.63609,3.640116 -1.88058,1.990956 -4.46724,3.641276 -5.70175,3.637788 -0.44,-0.0013 -1.37174,-0.326086 -2.07054,-0.721872 z m 6.09299,-13.137107 c 0.71635,-0.618259 1.7676,-1.996816 2.33612,-3.063462 0.88085,-1.65264 1.01945,-2.212119 0.93755,-3.784327 -0.0937,-1.798553 -0.1207,-1.847369 -1.07316,-1.940544 -1.35168,-0.13223 -2.52352,0.878349 -3.68381,3.176887 -0.92418,1.830781 -2.85915,7.1984 -2.85915,7.931283 0,0.511168 2.78803,-0.978259 4.34245,-2.319837 z m 34.03201,13.123639 c -2.62624,-1.388791 -3.35289,-4.184749 -2.40233,-9.243533 1.48166,-7.885536 4.85254,-14.044903 8.65568,-15.815872 1.89981,-0.884663 3.34029,-0.954 4.85792,-0.23384 1.31001,0.621638 1.88505,1.628675 2.16809,3.796851 0.65508,5.01776 -3.24355,10.303194 -9.97382,13.521622 l -2.32,1.109434 v 1.546326 c 0,1.220557 0.14525,1.648068 0.68947,2.029255 0.88112,0.617145 1.43431,0.334185 3.84919,-1.96888 1.93667,-1.847002 2.4991,-1.957811 3.62464,-0.714103 0.54643,0.603796 0.53606,0.675181 -0.277,1.903754 -1.44819,2.188371 -5.19193,4.812592 -6.86569,4.812592 -0.32999,0 -1.23274,-0.334624 -2.00615,-0.743606 z m 3.28375,-11.126087 c 3.91747,-1.998547 6.9871,-6.955641 6.21417,-10.0352 C 348.5151,37.488582 348.2862,37.34 347.42668,37.34 c -1.68451,0 -3.47833,2.264582 -4.91817,6.208883 -0.74282,2.034912 -1.67005,5.311117 -1.50317,5.311117 0.0826,0 0.74089,-0.30136 1.46288,-0.669693 z m 12.39213,11.131453 c -1.53687,-0.804467 -3.49034,-3.333152 -3.49034,-4.518054 0,-0.884605 1.66781,-2.519492 2.42106,-2.373264 0.3104,0.06026 0.83622,0.613558 1.16848,1.229558 0.68572,1.271306 2.30435,2.880595 2.89552,2.878803 0.90528,-0.0029 2.43312,-1.310374 3.07126,-2.628566 0.8136,-1.680669 0.90874,-4.266528 0.1945,-5.286259 -0.27933,-0.398775 -1.00013,-0.791117 -1.68,-0.914468 -1.8682,-0.338934 -3.52996,-1.323574 -4.10256,-2.430905 -0.73306,-1.417562 -0.47936,-5.050941 0.4839,-6.930416 0.94742,-1.84864 3.1393,-4.198211 4.41757,-4.735427 1.70461,-0.716397 4.2391,-0.556848 5.57504,0.350953 1.33923,0.910029 3.15523,3.495536 3.15523,4.492221 0,0.774992 -2.28182,2.259286 -3.03117,1.971734 -0.24313,-0.0933 -0.72797,-0.815971 -1.07741,-1.605932 -0.65088,-1.471428 -2.0175,-2.4957 -2.93142,-2.197101 -1.46538,0.478765 -2.70333,2.358835 -3.04253,4.62063 -0.19901,1.327216 -0.13456,1.586736 0.56887,2.290154 0.50419,0.504189 1.34102,0.875449 2.29616,1.018681 3.99571,0.599191 5.21494,5.034861 2.78403,10.128388 -2.18435,4.576921 -6.1568,6.48151 -9.67619,4.63927 z M 35.941226,58.776934 c -1.889008,-1.083363 -2.219558,-1.560768 -2.649174,-3.826115 -0.428947,-2.261827 0.11576,-6.076889 1.448557,-10.145565 1.321901,-4.035404 2.848291,-6.671123 5.27921,-9.115964 1.997616,-2.009053 3.678633,-2.729012 5.551536,-2.377652 1.265203,0.237354 3.460928,1.785012 4.476605,3.155338 l 0.65742,0.886979 -1.138633,1.138634 -1.138637,1.138637 -1.508515,-1.305613 c -1.996567,-1.728016 -3.066509,-1.749904 -4.639143,-0.09491 -2.279027,2.398387 -4.460406,7.517034 -5.154301,12.094682 -0.419228,2.765689 -0.243984,4.303283 0.570109,5.002041 1.191335,1.022557 1.608432,0.919261 3.551287,-0.879475 C 42.285943,53.486579 43.336254,52.7 43.581569,52.7 c 0.744378,0 1.868432,0.95871 1.868432,1.593594 0,0.841552 -1.432643,2.444528 -3.631411,4.063171 -2.320557,1.708294 -3.486045,1.791616 -5.877364,0.420169 z m 46.410021,0.425581 c -2.136643,-1.108502 -3.301245,-3.064035 -3.301245,-5.543257 0,-5.045882 3.704768,-15.214036 6.607587,-18.135268 1.920832,-1.933014 4.647815,-2.544249 6.988228,-1.566361 0.988985,0.413222 1.111213,0.405462 1.259683,-0.08 C 93.99593,33.581933 94.726108,30.892 95.528114,27.9 c 0.802004,-2.992 1.610266,-5.822177 1.796138,-6.289283 0.392627,-0.986689 1.954797,-1.431953 3.269808,-0.931987 l 0.82303,0.312915 -0.64232,2.334177 C 100.4215,24.60962 98.350425,31.852 96.17239,39.42 c -2.178032,7.568 -4.050292,14.192 -4.160573,14.72 -0.190842,0.913699 -0.125043,0.878976 1.364253,-0.72 0.86062,-0.924 1.797296,-1.68 2.081504,-1.68 0.284208,0 0.904157,0.333242 1.377667,0.740538 0.721075,0.620243 0.804259,0.846419 0.51209,1.392342 -0.584487,1.092125 -4.079239,4.143709 -5.550935,4.847021 -2.215968,1.058998 -3.104326,1.189984 -3.350656,0.494041 -0.115626,-0.326668 -0.398144,-1.0632 -0.627821,-1.636739 l -0.417597,-1.042797 -1.4428,1.402244 c -1.701622,1.653788 -2.391677,1.896009 -3.606275,1.265865 z m 4.415152,-6.273997 C 87.307474,52.186835 88.189026,50.716 88.725398,49.66 c 1.047206,-2.061722 4.084604,-10.953952 4.084604,-11.958016 0,-1.118301 -2.946512,-1.3852 -4.221392,-0.382378 -1.539203,1.21074 -3.824544,6.47505 -5.079363,11.700394 -0.752077,3.131811 -0.792038,5.061491 -0.118762,5.734768 0.450596,0.450595 0.594762,0.451728 1.446308,0.01139 0.520204,-0.269008 1.388528,-1.095939 1.929606,-1.837626 z M 113.45,59.258726 c -0.95823,-0.358048 -1.44706,-0.391756 -1.94457,-0.134092 -0.91995,0.476444 -2.72178,0.245766 -3.12612,-0.400218 -0.25534,-0.407939 0.796,-4.907632 4.41122,-18.88 2.61055,-10.089429 4.94475,-18.557143 5.18712,-18.817143 0.49967,-0.536027 2.80613,-0.641498 3.29687,-0.150761 0.21595,0.215955 -0.40647,3.163748 -1.89034,8.952727 -1.71684,6.697846 -2.0728,8.451596 -1.58942,7.830761 2.65467,-3.409536 3.89721,-4.38024 5.11296,-3.994374 2.1575,0.684761 3.82228,3.376704 3.82228,6.180595 0,3.651865 -2.9109,12.73024 -5.19505,16.202067 -1.88458,2.864499 -5.33934,4.236346 -8.08495,3.210438 z m 3.31409,-3.159568 c 1.71953,-0.953526 3.87931,-5.534156 5.37475,-11.399158 0.87548,-3.433616 0.89903,-5.980998 0.0601,-6.507126 -0.41004,-0.257165 -0.78342,-0.140532 -1.63887,0.511958 -2.38792,1.821354 -4.5362,6.133389 -6.66591,13.379837 -1.01871,3.466195 -1.03192,3.585149 -0.44585,4.013696 0.7538,0.551187 2.32252,0.551561 3.31574,6.4e-4 z M 130.2363,59.02 c -0.5876,-0.396 -1.43535,-1.433149 -1.88389,-2.304774 -0.72069,-1.400471 -0.81058,-1.943223 -0.77297,-4.666932 0.10632,-7.700473 3.83606,-16.080864 8.10637,-18.214272 3.62436,-1.810697 7.02104,-0.430966 8.03,3.261776 0.44899,1.643309 0.17467,7.250557 -0.48161,9.844202 -1.06165,4.195661 -3.10115,8.413219 -5.08674,10.519075 -2.13997,2.269581 -5.7908,2.989914 -7.91116,1.560925 z m 4.78674,-3.626419 c 1.1878,-0.999469 3.33973,-5.278103 4.09077,-8.133581 0.36182,-1.375661 0.552,-3.361616 0.56163,-5.864762 0.0132,-3.424355 -0.0464,-3.829468 -0.62544,-4.254268 -0.73147,-0.536615 -1.93765,-0.343616 -2.81941,0.451129 -1.0461,0.942864 -3.38403,6.214215 -3.8916,8.77441 -0.65881,3.323107 -0.65393,8.195597 0.009,9.142288 0.65409,0.933843 1.46992,0.898704 2.6749,-0.115216 z m 18.93393,4.043085 c -0.23334,-0.144212 -0.75917,-2.018071 -1.17313,-4.180541 -0.41262,-2.155549 -0.80406,-3.973018 -0.86986,-4.038819 -0.0658,-0.0658 -1.62028,1.716886 -3.45439,3.961529 l -3.33474,4.081165 -1.681,0.09685 c -2.56185,0.147594 -2.48382,-0.361597 0.63895,-4.169606 1.48264,-1.807984 3.65069,-4.543287 4.81788,-6.078448 1.89781,-2.496122 2.09206,-2.885172 1.83744,-3.68 -1.05984,-3.308368 -2.93499,-11.025072 -2.77831,-11.43338 0.13271,-0.345846 0.62565,-0.495414 1.63277,-0.495414 1.84396,0 2.03555,0.302176 3.39839,5.36 0.58094,2.156 1.1393,3.92 1.24081,3.92 0.10151,0 1.45553,-2.088 3.00894,-4.64 l 2.82438,-4.64 h 1.73245 c 2.06206,0 2.17011,0.311459 0.87838,2.531885 -0.89151,1.53247 -5.1758,7.952909 -6.6924,10.029232 l -0.87733,1.201117 0.85087,4.398883 c 1.23663,6.393181 1.34507,7.399043 0.81556,7.564877 -1.11952,0.350614 -2.43051,0.448707 -2.81566,0.210672 z m 59.83654,-0.544884 c -1.39502,-0.695168 -1.81825,-1.110681 -2.34558,-2.302796 -0.55654,-1.258154 -0.61862,-1.889018 -0.4597,-4.67178 0.3065,-5.366928 2.41915,-11.131126 5.46854,-14.920451 3.593,-4.464838 6.99119,-4.923942 10.43947,-1.410403 1.40571,1.43232 1.41232,1.44961 0.8855,2.318365 -0.29193,0.481405 -0.81,1.060899 -1.15127,1.287763 -0.54722,0.363776 -0.77969,0.269309 -1.96867,-0.8 -1.73558,-1.560896 -2.25445,-1.736122 -3.44028,-1.161805 -1.86759,0.904499 -4.91133,6.348871 -5.97623,10.68977 -0.71787,2.92623 -0.69466,6.766304 0.0447,7.401318 1.23881,1.063952 1.66046,0.962186 3.57338,-0.862425 C 219.87785,53.491702 220.9917,52.7 221.3386,52.7 c 0.90736,0 2.01031,1.131565 1.81837,1.865542 -0.19394,0.74161 -2.68509,3.205869 -4.39162,4.344208 -1.57878,1.05313 -2.83151,1.048602 -4.97184,-0.01798 z m 15.6565,0.623031 c -0.7576,-0.275667 -2.25154,-1.767472 -2.77607,-2.772093 -1.12119,-2.147395 -0.84231,-7.979014 0.606,-12.672058 0.87792,-2.844777 2.69939,-6.486166 4.01089,-8.018355 3.41754,-3.992624 8.44274,-4.028512 10.3571,-0.07397 1.61698,3.340221 0.48746,11.645639 -2.34917,17.273652 -1.67451,3.322297 -3.02005,4.943379 -4.83064,5.819875 -1.31982,0.638909 -3.86271,0.863369 -5.01811,0.442944 z m 3.41312,-3.706154 c 1.03837,-0.582256 1.93954,-1.869488 3.16376,-4.519155 1.48797,-3.220531 2.11771,-6.114544 2.17511,-9.99585 0.0412,-2.785305 -0.0386,-3.342016 -0.56159,-3.92 C 237.30513,37.003146 236.77618,36.7 236.46496,36.7 c -1.00481,0 -2.54279,1.631546 -3.69528,3.92008 -2.50546,4.975168 -3.53596,13.417923 -1.84425,15.109632 0.58329,0.583286 1.00746,0.60057 1.9377,0.07895 z M 0.81336198,58.790592 C 0.57990944,58.05505 9.1252856,24.112836 9.8232808,23.003217 c 0.3942172,-0.626696 0.6878312,-0.722322 1.9650932,-0.64 1.358957,0.08759 1.510986,0.177696 1.600143,0.94841 C 13.498276,24.26043 4.919736,58.388227 4.4126756,59.02 4.2360496,59.240067 3.39923,59.42 2.5523817,59.42 1.302806,59.42 0.97553331,59.301549 0.81336198,58.790592 Z M 11.741705,58.95935 C 11.598683,58.586643 15.789711,42.090899 17.783259,35.18 l 0.48462,-1.68 h 1.751061 c 2.35546,0 2.352712,-0.162694 0.12214,7.233117 -0.864094,2.865037 -1.57108,5.397536 -1.57108,5.627773 0,0.23024 1.223192,-1.597274 2.718204,-4.061136 4.339171,-7.1512 6.10351,-8.799754 9.41779,-8.799754 1.823799,0 2.264007,0.460621 2.264007,2.369002 0,1.052691 -5.364813,21.235955 -6.068594,22.830998 -0.274169,0.621376 -0.559709,0.72 -2.084546,0.72 -1.556191,0 -1.76686,-0.07666 -1.76686,-0.642909 0,-0.3536 1.305745,-4.904352 2.901656,-10.112784 1.59591,-5.208432 2.813961,-9.698403 2.706779,-9.977718 -0.16095,-0.419427 -0.355342,-0.34408 -1.116585,0.432787 C 26.775406,39.901552 20.320344,49.851862 15.623828,57.490701 14.497842,59.322109 14.373745,59.42 13.178065,59.42 c -0.800925,0 -1.32396,-0.167741 -1.43636,-0.46065 z M 48.482868,59.02 c -0.194553,-0.529219 6.098641,-24.475504 6.586881,-25.063795 0.408025,-0.491639 3.342876,-0.649728 3.623792,-0.1952 0.08872,0.143555 -0.126365,1.383971 -0.477968,2.75648 -0.351607,1.372509 -0.587744,2.547008 -0.524756,2.61 0.06299,0.06299 0.898576,-0.984279 1.856855,-2.327261 1.947712,-2.729619 3.124605,-3.617264 4.79833,-3.619027 2.438461,-0.0026 2.279817,0.885254 -0.737383,4.126633 -3.234605,3.474938 -3.704688,4.710311 -2.458384,6.460589 0.36313,0.509968 0.575776,1.063875 0.472544,1.230909 -0.103232,0.16703 -0.859981,0.404509 -1.681661,0.527728 -1.437536,0.215571 -1.531033,0.179885 -2.475277,-0.944816 l -0.981308,-1.168851 -1.889319,7.443305 C 53.556088,54.950512 52.491003,58.552 52.228353,58.86 51.652728,59.535018 48.71828,59.660371 48.482868,59.02 Z M 98.031993,58.904218 C 97.842307,58.409904 103.34284,36.687648 104.20153,34.54 c 0.39922,-0.998493 0.48671,-1.04 2.19214,-1.04 1.61762,0 1.77633,0.063 1.77633,0.70503 0,0.999981 -6.09076,24.331162 -6.47811,24.81497 -0.4914,0.613763 -3.415443,0.521258 -3.659897,-0.115782 z m 101.678637,0.06063 c -0.29792,-0.358963 0.37388,-3.419053 3.17889,-14.48 4.6892,-18.490935 5.44369,-21.309169 5.83218,-21.784848 0.53053,-0.649615 3.04729,-0.509305 3.42196,0.190775 0.23791,0.444545 -0.78758,4.92973 -4.14302,18.120326 -2.45256,9.641254 -4.62341,17.727405 -4.8241,17.969225 -0.48426,0.583498 -2.97805,0.572362 -3.46591,-0.01549 z m 43.17938,-0.395101 c 0,-1.072694 6.06226,-24.102499 6.49395,-24.669747 0.42267,-0.555389 3.39703,-0.527955 3.61241,0.03332 0.0915,0.238326 -0.64088,3.134512 -1.6274,6.435968 -0.98653,3.301456 -1.74109,6.055248 -1.6768,6.119539 0.0643,0.06429 1.17445,-1.643895 2.46702,-3.795968 4.47939,-7.457987 6.26737,-9.192861 9.47429,-9.192861 2.00965,0 2.55637,0.520595 2.48819,2.369312 -0.0389,1.054211 -2.71217,11.254845 -5.73169,21.870688 l -0.47785,1.68 h -1.91106 c -1.55107,0 -1.91106,-0.098 -1.91106,-0.52023 0,-0.286128 1.30468,-4.76026 2.8993,-9.942512 1.59462,-5.182253 2.85462,-9.725325 2.8,-10.095712 -0.0981,-0.66562 -0.10939,-0.664429 -0.96839,0.102512 -0.71216,0.63583 -4.53057,6.486736 -12.30574,18.855942 -0.81399,1.294934 -1.04218,1.449914 -2.26517,1.5384 -1.29659,0.09381 -1.36,0.05704 -1.36,-0.788653 z m 69.24918,0.405319 c -0.15791,-0.411492 5.60552,-23.138605 6.2777,-24.755066 0.2593,-0.623584 0.536,-0.72 2.06627,-0.72 2.09056,0 2.11162,0.07014 1.14214,3.803203 -0.33753,1.299763 -0.50492,2.235763 -0.37196,2.08 0.13296,-0.15576 0.97875,-1.29687 1.87952,-2.535798 2.32675,-3.20017 2.69881,-3.479927 4.64819,-3.494803 2.32249,-0.01773 2.33475,0.610361 0.0608,3.110483 -2.45491,2.699043 -3.75184,4.627923 -3.75184,5.580003 0,0.435325 0.32073,1.225296 0.7127,1.755494 0.392,0.530196 0.58999,1.085034 0.44,1.232973 -0.14998,0.147936 -1.00726,0.365562 -1.90502,0.483613 -1.6185,0.212816 -1.6385,0.204701 -2.35651,-0.957098 -0.39831,-0.644454 -0.76702,-1.12816 -0.8194,-1.074902 -0.0524,0.05326 -0.96314,3.455472 -2.02393,7.560474 -1.0608,4.105004 -2.09915,7.669004 -2.30746,7.92 -0.50978,0.61424 -3.45638,0.62336 -3.6912,0.01142 z M 326.16486,59.02 c -0.22704,-0.280682 0.62908,-4.027277 2.87004,-12.56 1.75648,-6.688 3.34208,-12.34 3.52352,-12.56 0.18932,-0.229507 1.06343,-0.4 2.05076,-0.4 1.42585,0 1.7207,0.09599 1.72003,0.56 -0.003,1.258998 -6.35399,24.814765 -6.76135,25.07281 -0.66288,0.419936 -3.03574,0.341276 -3.403,-0.11281 z M 174.20194,44.210125 c -0.23803,-0.620285 0.10001,-2.354349 0.56915,-2.919626 0.27718,-0.333987 1.76957,-0.430499 6.65694,-0.430499 7.15817,0 7.62908,0.12447 7.26968,1.921482 -0.38769,1.938422 -0.30866,1.918518 -7.61693,1.918518 -5.71217,0 -6.71836,-0.07165 -6.87884,-0.489875 z m -68.5316,-14.242591 c -0.97004,-0.903732 -1.04379,-2.575906 -0.15741,-3.569396 1.50629,-1.688326 4.54098,-0.521195 4.5669,1.756408 0.0235,2.064591 -2.86477,3.252113 -4.40949,1.812988 z m 228.1078,0.0206 c -0.98896,-0.98897 -1.15111,-2.170439 -0.43034,-3.13582 1.25885,-1.686104 3.31085,-1.653398 4.44055,0.07078 1.49827,2.286642 -2.06509,5.010154 -4.01021,3.065042 z"
       id="path966" />
  </g>
  <path
     style="color:#000000;font-style:normal;font-variant:normal;font-weight:normal;font-stretch:normal;font-size:medium;line-height:normal;font-family:sans-serif;font-variant-ligatures:normal;font-variant-position:normal;font-variant-caps:normal;font-variant-numeric:normal;font-variant-alternates:normal;font-variant-east-asian:normal;font-feature-settings:normal;font-variation-settings:normal;text-indent:0;text-align:start;text-decoration:none;text-decoration-line:none;text-decoration-style:solid;text-decoration-color:#000000;letter-spacing:normal;word-spacing:normal;text-transform:none;writing-mode:lr-tb;direction:ltr;text-orientation:mixed;dominant-baseline:auto;baseline-shift:baseline;text-anchor:start;white-space:normal;shape-padding:0;shape-margin:0;inline-size:0;clip-rule:nonzero;display:inline;overflow:visible;visibility:visible;isolation:auto;mix-blend-mode:normal;color-interpolation:sRGB;color-interpolation-filters:linearRGB;solid-color:#000000;solid-opacity:1;vector-effect:none;fill:url(#linearGradient3070);fill-opacity:1;fill-rule:nonzero;stroke:none;stroke-width:0.32;stroke-linecap:butt;stroke-linejoin:miter;stroke-miterlimit:4;stroke-dasharray:none;stroke-dashoffset:0;stroke-opacity:1;color-rendering:auto;image-rendering:auto;shape-rendering:auto;text-rendering:auto;enable-background:accumulate;stop-color:#000000"
     d="m 356.30304,1.8654423 13.98507,1.6916266 -6.54667,20.9096221 -3.2992,0.02506 z"
     id="path978-5"
     sodipodi:nodetypes="ccccc" />
</svg>
